<svg width="16" height="16" viewBox="0 0 16 16" fill="none" xmlns="http://www.w3.org/2000/svg">
<path d="M10 1.33331H6.00001C5.63182 1.33331 5.33334 1.63179 5.33334 1.99998V3.33331C5.33334 3.7015 5.63182 3.99998 6.00001 3.99998H10C10.3682 3.99998 10.6667 3.7015 10.6667 3.33331V1.99998C10.6667 1.63179 10.3682 1.33331 10 1.33331Z" stroke="#2A6E6E" stroke-width="1.33333" stroke-linecap="round" stroke-linejoin="round"/>
<path d="M10.6667 2.66669H12C12.3536 2.66669 12.6928 2.80716 12.9428 3.05721C13.1928 3.30726 13.3333 3.6464 13.3333 4.00002V13.3334C13.3333 13.687 13.1928 14.0261 12.9428 14.2762C12.6928 14.5262 12.3536 14.6667 12 14.6667H3.99999C3.64637 14.6667 3.30723 14.5262 3.05718 14.2762C2.80713 14.0261 2.66666 13.687 2.66666 13.3334V4.00002C2.66666 3.6464 2.80713 3.30726 3.05718 3.05721C3.30723 2.80716 3.64637 2.66669 3.99999 2.66669H5.33332" stroke="#2A6E6E" stroke-width="1.33333" stroke-linecap="round" stroke-linejoin="round"/>
<path d="M8 7.33331H10.6667" stroke="#2A6E6E" stroke-width="1.33333" stroke-linecap="round" stroke-linejoin="round"/>
<path d="M8 10.6667H10.6667" stroke="#2A6E6E" stroke-width="1.33333" stroke-linecap="round" stroke-linejoin="round"/>
<path d="M5.33334 7.33331H5.34001" stroke="#2A6E6E" stroke-width="1.33333" stroke-linecap="round" stroke-linejoin="round"/>
<path d="M5.33334 10.6667H5.34001" stroke="#2A6E6E" stroke-width="1.33333" stroke-linecap="round" stroke-linejoin="round"/>
</svg>
