<svg width="6" height="16" viewBox="0 0 6 16" fill="none" xmlns="http://www.w3.org/2000/svg">
<path d="M3.375 10.3977C3.03125 10.3977 2.71733 10.3139 2.43324 10.1463C2.14915 9.97585 1.92188 9.74858 1.75142 9.46449C1.58381 9.1804 1.5 8.86648 1.5 8.52273C1.5 8.17614 1.58381 7.86222 1.75142 7.58097C1.92188 7.29687 2.14915 7.07102 2.43324 6.90341C2.71733 6.73295 3.03125 6.64773 3.375 6.64773C3.72159 6.64773 4.03551 6.73295 4.31676 6.90341C4.60085 7.07102 4.8267 7.29687 4.99432 7.58097C5.16477 7.86222 5.25 8.17614 5.25 8.52273C5.25 8.86648 5.16477 9.1804 4.99432 9.46449C4.8267 9.74858 4.60085 9.97585 4.31676 10.1463C4.03551 10.3139 3.72159 10.3977 3.375 10.3977Z" fill="#F57C00"/>
</svg>
