<svg width="28" height="28" viewBox="0 0 28 28" fill="none" xmlns="http://www.w3.org/2000/svg">
<path d="M0 14C0 6.26801 6.26801 0 14 0C21.732 0 28 6.26801 28 14C28 21.732 21.732 28 14 28C6.26801 28 0 21.732 0 14Z" fill="#2A6E6E"/>
<path d="M18.6667 20V18.6667C18.6667 17.9594 18.3857 17.2811 17.8856 16.781C17.3855 16.281 16.7073 16 16 16H12C11.2928 16 10.6145 16.281 10.1144 16.781C9.61429 17.2811 9.33334 17.9594 9.33334 18.6667V20" stroke="white" stroke-width="1.33333" stroke-linecap="round" stroke-linejoin="round"/>
<path d="M14 13.3333C15.4728 13.3333 16.6667 12.1394 16.6667 10.6667C16.6667 9.19391 15.4728 8 14 8C12.5273 8 11.3333 9.19391 11.3333 10.6667C11.3333 12.1394 12.5273 13.3333 14 13.3333Z" stroke="white" stroke-width="1.33333" stroke-linecap="round" stroke-linejoin="round"/>
</svg>
